<svg width="582" height="344" viewBox="0 0 582 344" fill="none" xmlns="http://www.w3.org/2000/svg">
<g clip-path="url(#clip0_611_781)">
<path opacity="0.2" fill-rule="evenodd" clip-rule="evenodd" d="M439.864 80.4956H129.555C121.531 80.4956 115.025 87.0074 115.025 95.0402C115.025 103.073 121.531 109.585 129.555 109.585H158.982L158.815 109.593C166.839 109.593 173.344 116.105 173.344 124.138C173.344 131.823 167.39 138.116 159.847 138.646H83.846C75.8226 138.646 69.3189 145.158 69.3189 153.191C69.3189 161.223 75.8226 167.735 83.846 167.735H162.265L161.866 167.76C169.891 167.76 176.396 174.272 176.396 182.305C176.396 190.337 169.891 196.849 161.866 196.849L161.912 196.851H129.554C121.529 196.851 115.025 203.362 115.025 211.395C115.025 219.428 121.529 225.94 129.554 225.94H182.71L182.519 225.946C190.543 225.946 197.048 232.458 197.048 240.491C197.048 248.523 190.543 255.035 182.519 255.035L182.578 255.037H76.7514C68.7254 255.037 62.2217 261.549 62.2217 269.581C62.2217 277.614 68.7254 284.126 76.7514 284.126H159.598C167.391 284.389 173.628 290.796 173.628 298.662C173.628 306.618 167.247 313.082 159.329 313.205H133.529C125.504 313.205 118.999 319.717 118.999 327.749C118.999 335.782 125.504 342.294 133.529 342.294H308.795C316.819 342.294 323.324 335.782 323.324 327.749C323.324 319.717 316.819 313.205 308.795 313.205H280.68C272.762 313.082 266.381 306.618 266.381 298.662C266.381 290.796 272.618 284.389 280.411 284.126H415.859C423.884 284.126 430.389 277.614 430.389 269.581C430.389 261.549 423.884 255.037 415.859 255.037H391.793L391.854 255.035V254.958C384.535 254.207 378.824 248.017 378.824 240.491C378.824 232.965 384.535 226.775 391.854 226.023V225.946L391.6 225.94H474.881C482.905 225.94 489.41 219.428 489.41 211.395C489.41 203.362 482.905 196.851 474.881 196.851H428.559L428.565 196.849C420.541 196.849 414.036 190.337 414.036 182.305C414.036 174.272 420.541 167.76 428.565 167.76L427.277 167.735H504.498C512.522 167.735 519.027 161.223 519.027 153.191C519.027 145.158 512.522 138.646 504.498 138.646H413.354C405.812 138.116 399.857 131.823 399.857 124.138C399.857 116.105 406.362 109.593 414.387 109.593L413.826 109.585H439.864C447.889 109.585 454.394 103.073 454.394 95.0402C454.394 87.0074 447.889 80.4956 439.864 80.4956Z" fill="#7F91A8"/>
<path d="M233.707 219.851C230.356 217.684 228.41 216.254 227.317 215.349C226.233 214.443 225.975 214.019 226.118 213.787C226.266 213.557 226.713 213.531 228.072 213.992C229.421 214.455 231.663 215.369 235.258 217.091C238.865 218.805 242.99 221.311 246.101 223.618C247.659 224.761 248.978 225.836 249.893 226.622C250.807 227.408 251.335 227.907 251.335 227.907C251.335 227.907 248.517 227.151 244.949 225.689C241.362 224.245 237.048 222.026 233.707 219.851Z" fill="#FF2F22"/>
<path d="M222.849 229.269C221.196 225.635 220.328 223.382 219.895 222.032C219.463 220.669 219.48 220.188 219.725 220.069C219.965 219.943 220.365 220.175 221.26 221.295C222.151 222.419 223.537 224.384 225.64 227.778C226.688 229.475 227.762 231.41 228.729 233.372C229.697 235.332 230.562 237.327 231.257 239.131C231.954 240.935 232.482 242.546 232.833 243.708C233.184 244.871 233.357 245.571 233.357 245.571C233.357 245.571 231.389 243.411 229.17 240.252C228.059 238.678 226.879 236.847 225.783 234.945C224.687 233.047 223.678 231.085 222.849 229.269Z" fill="#FF2F22"/>
<path d="M208.587 231.325C209.156 227.372 209.642 225.003 210.008 223.626C210.378 222.254 210.653 221.874 210.928 221.885C211.201 221.906 211.412 222.346 211.563 223.752C211.709 225.166 211.813 227.581 211.746 231.574C211.69 235.567 211.131 240.377 210.335 244.176C209.565 247.959 208.628 250.717 208.628 250.717C208.628 250.717 208.508 250 208.364 248.801C208.221 247.603 208.061 245.924 207.979 243.984C207.794 240.109 208.006 235.275 208.587 231.325Z" fill="#FF2F22"/>
<path d="M195.532 225.349C198.15 222.336 199.84 220.612 200.89 219.658C201.943 218.709 202.397 218.518 202.608 218.693C202.818 218.869 202.779 219.321 202.13 220.602C201.479 221.876 200.259 223.962 198.044 227.279C195.833 230.612 192.768 234.341 190.045 237.095C188.693 238.476 187.446 239.628 186.536 240.427C185.629 241.221 185.062 241.673 185.062 241.673C185.062 241.673 186.211 238.988 188.164 235.661C190.099 232.314 192.908 228.351 195.532 225.349Z" fill="#FF2F22"/>
<path d="M187.779 213.256C191.61 212.138 193.957 211.603 195.358 211.366C196.77 211.13 197.239 211.218 197.32 211.476C197.417 211.729 197.123 212.093 195.888 212.818C194.648 213.541 192.514 214.631 188.854 216.231C187.025 217.028 184.964 217.813 182.88 218.494C180.804 219.173 178.709 219.744 176.825 220.175C174.943 220.607 173.275 220.899 172.077 221.08C170.876 221.261 170.156 221.333 170.156 221.333C170.156 221.333 172.574 219.691 176.017 217.944C179.441 216.176 183.949 214.361 187.779 213.256Z" fill="#FF2F22"/>
<path d="M187.779 198.863C191.605 199.992 193.877 200.812 195.183 201.369C196.48 201.929 196.837 202.259 196.776 202.523C196.705 202.785 196.264 202.933 194.844 202.879C193.422 202.819 191.017 202.579 187.078 201.948C183.138 201.328 178.464 200.095 174.825 198.764C172.999 198.109 171.442 197.455 170.344 196.961C169.244 196.466 168.596 196.137 168.596 196.137C168.596 196.137 171.506 196.059 175.343 196.45C179.204 196.819 183.956 197.722 187.779 198.863Z" fill="#FF2F22"/>
<path d="M195.534 186.758C198.143 189.779 199.609 191.697 200.403 192.872C201.195 194.052 201.317 194.527 201.114 194.711C200.912 194.897 200.467 194.793 199.293 193.969C198.123 193.143 196.236 191.641 193.269 188.975C190.288 186.312 187.031 182.743 184.695 179.658C183.52 178.122 182.56 176.725 181.897 175.708C181.239 174.697 180.873 174.071 180.873 174.071C180.873 174.071 183.365 175.59 186.379 177.997C189.414 180.387 192.937 183.733 195.534 186.758Z" fill="#FF2F22"/>
<path d="M208.573 180.786C209.131 184.745 209.321 187.135 209.357 188.571C209.387 190.004 209.231 190.448 208.964 190.495C208.701 190.562 208.381 190.209 207.841 188.882C207.307 187.559 206.534 185.282 205.478 181.429C204.411 177.582 203.593 172.792 203.303 168.944C202.984 165.093 203.114 162.171 203.114 162.171C203.114 162.171 203.43 162.825 203.905 163.942C204.38 165.058 205.004 166.634 205.623 168.465C206.244 170.296 206.857 172.381 207.367 174.507C207.88 176.641 208.292 178.809 208.573 180.786Z" fill="#FF2F22"/>
<path d="M222.848 182.829C221.183 186.458 220.047 188.59 219.309 189.804C218.57 191.005 218.189 191.322 217.94 191.216C217.692 191.105 217.604 190.66 217.866 189.252C218.13 187.85 218.712 185.501 219.9 181.689C221.077 177.874 222.965 173.423 224.801 170.011C226.617 166.581 228.294 164.214 228.294 164.214C228.294 164.214 227.951 167.113 227.017 170.855C226.099 174.622 224.523 179.207 222.848 182.829Z" fill="#FF2F22"/>
<path d="M233.653 192.255C230.295 194.412 228.191 195.593 226.916 196.214C225.635 196.833 225.151 196.886 224.998 196.659C224.842 196.435 225.01 196.007 225.991 194.961C226.974 193.918 228.724 192.263 231.781 189.699C234.836 187.121 238.828 184.397 242.209 182.521C243.893 181.574 245.411 180.82 246.51 180.307C247.606 179.797 248.276 179.524 248.276 179.524C248.276 179.524 246.42 181.779 243.612 184.426C242.216 185.751 240.568 187.184 238.846 188.539C237.126 189.895 235.33 191.175 233.653 192.255Z" fill="#FF2F22"/>
<path d="M237.739 206.061C233.749 206.055 231.335 205.906 229.919 205.734C228.495 205.559 228.101 205.334 228.071 205.06C228.043 204.787 228.449 204.515 229.83 204.168C231.205 203.828 233.577 203.385 237.535 202.889C239.515 202.642 241.712 202.474 243.902 202.412C246.091 202.348 248.274 202.394 250.193 202.515C254.043 202.748 256.91 203.289 256.91 203.289C256.91 203.289 256.219 203.509 255.055 203.82C253.885 204.131 252.234 204.525 250.334 204.878C246.533 205.606 241.727 206.078 237.739 206.061Z" fill="#FF2F22"/>
<path d="M246.151 244.157C249.194 247.589 251.345 249.381 252.986 250.084C254.624 250.794 255.69 250.388 256.502 249.59C257.305 248.783 257.65 247.669 256.934 246.06C256.224 244.446 254.378 242.308 250.902 239.325C249.163 237.83 247.112 236.339 245.055 234.891C242.992 233.461 240.931 232.033 239.095 230.761C237.274 229.498 235.707 228.385 234.599 227.584C233.491 226.776 232.824 226.29 232.824 226.29C232.824 226.29 234.811 228.88 237.401 232.495C238.7 234.306 240.158 236.34 241.617 238.376C243.1 240.413 244.628 242.442 246.151 244.157Z" fill="#FF2F22"/>
<path d="M220.228 256.482C220.941 261.015 221.787 263.687 222.792 265.169C223.786 266.628 224.906 266.885 226.021 266.649C227.127 266.383 228.023 265.654 228.286 263.911C228.551 262.152 228.152 259.365 226.83 254.975C226.172 252.777 225.248 250.412 224.295 248.083C223.328 245.767 222.363 243.453 221.503 241.393C220.649 239.344 219.927 237.558 219.425 236.285C218.929 235.012 218.63 234.247 218.63 234.247C218.63 234.247 218.907 237.495 219.141 241.934C219.259 244.162 219.392 246.665 219.525 249.17C219.676 251.683 219.869 254.216 220.228 256.482Z" fill="#FF2F22"/>
<path d="M191.703 252.806C189.857 257.006 189.13 259.707 189.179 261.487C189.201 262.375 189.41 263.031 189.746 263.517C190.088 263.986 190.556 264.284 191.091 264.477C191.625 264.67 192.175 264.743 192.738 264.597C193.305 264.438 193.883 264.067 194.466 263.398C195.637 262.06 196.802 259.518 198.066 255.107C198.701 252.902 199.204 250.409 199.664 247.928C200.1 245.46 200.536 242.995 200.924 240.8C201.306 238.631 201.669 236.719 201.936 235.37C202.206 234.026 202.369 233.217 202.369 233.217C202.369 233.217 201.978 233.943 201.328 235.15C200.673 236.355 199.729 238.063 198.64 239.975C197.538 241.912 196.3 244.087 195.06 246.264C193.83 248.466 192.624 250.705 191.703 252.806Z" fill="#FF2F22"/>
<path d="M169.723 234.274C165.897 236.803 163.82 238.68 162.89 240.206C161.96 241.724 162.204 242.84 162.877 243.756C163.564 244.662 164.61 245.166 166.303 244.685C168 244.208 170.38 242.682 173.823 239.664C175.549 238.155 177.317 236.335 179.041 234.504C180.748 232.663 182.453 230.824 183.972 229.187C185.481 227.562 186.804 226.166 187.753 225.181C188.708 224.199 189.283 223.608 189.283 223.608C189.283 223.608 186.439 225.206 182.498 227.258C180.521 228.288 178.302 229.444 176.081 230.602C173.857 231.782 171.634 233.008 169.723 234.274Z" fill="#FF2F22"/>
<path d="M161.245 206.791C156.665 206.848 153.89 207.304 152.293 208.087C150.71 208.863 150.288 209.938 150.364 211.077C150.475 212.213 151.06 213.206 152.747 213.717C154.458 214.231 157.261 214.234 161.793 213.551C164.06 213.213 166.531 212.634 168.971 212.023C171.398 211.396 173.822 210.77 175.981 210.213C180.279 209.101 183.458 208.391 183.458 208.391C183.458 208.391 182.639 208.336 181.278 208.245C179.914 208.149 177.995 207.998 175.787 207.799C173.565 207.596 171.071 207.37 168.573 207.142C166.068 206.932 163.537 206.76 161.245 206.791Z" fill="#FF2F22"/>
<path d="M168.925 179.063C165.036 176.633 162.468 175.526 160.697 175.32C158.916 175.1 158.008 175.791 157.464 176.794C156.906 177.79 156.901 178.961 158.048 180.303C159.199 181.655 161.544 183.168 165.728 185.044C167.819 185.984 170.215 186.835 172.606 187.643C174.987 188.428 177.366 189.211 179.484 189.909C183.675 191.283 186.768 192.42 186.768 192.42C186.768 192.42 184.124 190.499 180.611 187.764C178.855 186.397 176.884 184.861 174.91 183.324C172.91 181.79 170.871 180.276 168.925 179.063Z" fill="#FF2F22"/>
<path d="M190.378 159.932C188.418 155.784 186.856 153.459 185.478 152.321C184.11 151.189 182.971 151.268 181.97 151.806C180.979 152.362 180.332 153.322 180.568 155.067C180.803 156.821 181.972 159.391 184.469 163.232C185.717 165.157 187.266 167.167 188.833 169.135C190.411 171.087 191.987 173.037 193.391 174.773C194.785 176.499 195.979 178.008 196.818 179.088C197.653 180.172 198.157 180.825 198.157 180.825C198.157 180.825 196.98 177.781 195.508 173.585C194.77 171.481 193.94 169.118 193.11 166.752C192.257 164.382 191.36 162.006 190.378 159.932Z" fill="#FF2F22"/>
<path d="M245.109 166.993C248.069 163.488 249.533 161.102 249.993 159.376C250.466 157.643 249.905 156.652 248.998 155.961C248.091 155.27 246.932 155.097 245.444 156.036C243.948 156.973 242.106 159.095 239.652 162.973C238.42 164.913 237.247 167.147 236.102 169.405C234.985 171.653 233.868 173.899 232.874 175.899C231.886 177.883 231.012 179.592 230.377 180.805C229.734 182.02 229.348 182.752 229.348 182.752C229.348 182.752 231.624 180.41 234.829 177.325C236.434 175.781 238.236 174.046 240.04 172.31C241.842 170.55 243.632 168.747 245.109 166.993Z" fill="#FF2F22"/>
<path d="M260.974 190.956C265.354 189.603 267.875 188.384 269.196 187.179C270.504 185.985 270.592 184.843 270.202 183.774C269.788 182.714 268.934 181.935 267.174 181.922C265.402 181.908 262.699 182.701 258.546 184.632C256.466 185.597 254.259 186.848 252.091 188.122C249.938 189.409 247.787 190.695 245.871 191.84C243.967 192.978 242.305 193.947 241.118 194.626C239.929 195.3 239.213 195.705 239.213 195.705C239.213 195.705 242.388 194.969 246.745 194.106C248.931 193.672 251.386 193.184 253.843 192.696C256.307 192.188 258.784 191.635 260.974 190.956Z" fill="#FF2F22"/>
<path d="M261.37 219.739C265.785 220.976 268.554 221.316 270.301 221.018C272.037 220.722 272.786 219.83 272.991 218.709C273.208 217.593 272.963 216.486 271.453 215.512C269.959 214.536 267.278 213.738 262.738 213.107C260.468 212.789 257.933 212.643 255.417 212.536C252.917 212.45 250.419 212.365 248.195 212.288C243.749 212.136 240.489 211.92 240.489 211.92C240.489 211.92 243.589 213.034 247.688 214.667C249.762 215.488 252.091 216.411 254.421 217.334C256.776 218.244 259.162 219.123 261.37 219.739Z" fill="#FF2F22"/>
<path d="M382.269 141.346C378.611 138.981 376.488 137.421 375.295 136.433C374.111 135.444 373.83 134.981 373.986 134.728C374.147 134.477 374.635 134.448 376.118 134.952C377.59 135.457 380.037 136.455 383.962 138.334C387.898 140.205 392.402 142.941 395.797 145.459C397.497 146.706 398.937 147.879 399.936 148.737C400.933 149.595 401.509 150.14 401.509 150.14C401.509 150.14 398.434 149.315 394.54 147.719C390.624 146.143 385.916 143.721 382.269 141.346Z" fill="#F9971E"/>
<path d="M370.377 151.642C368.572 147.676 367.625 145.217 367.152 143.744C366.68 142.257 366.699 141.731 366.966 141.601C367.229 141.463 367.665 141.717 368.642 142.94C369.614 144.166 371.128 146.311 373.422 150.016C374.567 151.868 375.739 153.979 376.794 156.121C377.851 158.26 378.795 160.438 379.553 162.408C380.314 164.376 380.891 166.135 381.274 167.403C381.657 168.672 381.845 169.436 381.845 169.436C381.845 169.436 379.698 167.079 377.276 163.631C376.063 161.913 374.775 159.914 373.579 157.838C372.383 155.766 371.282 153.625 370.377 151.642Z" fill="#F9971E"/>
<path d="M354.88 153.878C355.501 149.564 356.031 146.978 356.431 145.475C356.835 143.978 357.135 143.563 357.435 143.575C357.733 143.598 357.963 144.078 358.129 145.612C358.287 147.156 358.401 149.792 358.328 154.15C358.267 158.508 357.657 163.758 356.788 167.905C355.948 172.034 354.925 175.045 354.925 175.045C354.925 175.045 354.793 174.262 354.637 172.953C354.481 171.646 354.306 169.813 354.217 167.695C354.014 163.466 354.246 158.19 354.88 153.878Z" fill="#F9971E"/>
<path d="M340.592 147.351C343.45 144.063 345.294 142.18 346.44 141.139C347.59 140.104 348.085 139.895 348.315 140.086C348.544 140.278 348.501 140.772 347.793 142.169C347.083 143.56 345.752 145.837 343.334 149.458C340.92 153.095 337.575 157.166 334.603 160.171C333.127 161.679 331.766 162.936 330.773 163.808C329.783 164.675 329.163 165.168 329.163 165.168C329.163 165.168 330.418 162.238 332.549 158.606C334.662 154.953 337.728 150.628 340.592 147.351Z" fill="#F9971E"/>
<path d="M332.147 134.154C336.328 132.934 338.889 132.349 340.418 132.091C341.96 131.834 342.471 131.929 342.56 132.211C342.666 132.487 342.345 132.885 340.997 133.676C339.643 134.465 337.314 135.654 333.319 137.4C331.323 138.271 329.074 139.128 326.799 139.871C324.533 140.613 322.246 141.236 320.191 141.705C318.136 142.177 316.315 142.496 315.007 142.693C313.697 142.891 312.911 142.969 312.911 142.969C312.911 142.969 315.55 141.177 319.308 139.271C323.046 137.341 327.966 135.36 332.147 134.154Z" fill="#F9971E"/>
<path d="M332.146 118.441C336.322 119.673 338.802 120.568 340.228 121.177C341.644 121.788 342.033 122.147 341.967 122.436C341.889 122.722 341.408 122.884 339.858 122.824C338.305 122.759 335.681 122.497 331.381 121.808C327.08 121.132 321.98 119.786 318.007 118.334C316.014 117.618 314.315 116.905 313.116 116.365C311.915 115.825 311.208 115.466 311.208 115.466C311.208 115.466 314.384 115.381 318.573 115.807C322.787 116.21 327.974 117.196 332.146 118.441Z" fill="#F9971E"/>
<path d="M354.881 98.7272C355.489 103.048 355.697 105.657 355.736 107.224C355.769 108.788 355.599 109.273 355.307 109.324C355.02 109.397 354.671 109.012 354.082 107.564C353.499 106.12 352.655 103.634 351.502 99.4283C350.337 95.2294 349.445 90.0019 349.128 85.802C348.781 81.5986 348.922 78.4087 348.922 78.4087C348.922 78.4087 349.267 79.1227 349.785 80.3425C350.303 81.5605 350.985 83.2801 351.661 85.2787C352.339 87.2771 353.007 89.5533 353.564 91.8736C354.124 94.2022 354.574 96.5696 354.881 98.7272Z" fill="#F9971E"/>
<path d="M370.403 100.947C368.586 104.908 367.346 107.235 366.54 108.559C365.733 109.871 365.318 110.217 365.046 110.101C364.775 109.979 364.68 109.494 364.965 107.957C365.254 106.427 365.889 103.863 367.185 99.7023C368.47 95.538 370.531 90.6802 372.535 86.9559C374.517 83.2117 376.347 80.6284 376.347 80.6284C376.347 80.6284 375.973 83.7924 374.953 87.8773C373.952 91.9891 372.231 96.993 370.403 100.947Z" fill="#F9971E"/>
<path d="M382.242 111.238C378.578 113.592 376.281 114.882 374.89 115.559C373.491 116.235 372.963 116.293 372.796 116.045C372.625 115.8 372.809 115.334 373.88 114.191C374.953 113.054 376.862 111.246 380.199 108.448C383.534 105.635 387.891 102.662 391.581 100.613C393.42 99.5796 395.076 98.7571 396.276 98.1976C397.472 97.6402 398.203 97.3423 398.203 97.3423C398.203 97.3423 396.178 99.8039 393.113 102.693C391.588 104.139 389.79 105.704 387.911 107.182C386.033 108.663 384.073 110.059 382.242 111.238Z" fill="#F9971E"/>
<path d="M386.701 126.305C382.347 126.298 379.712 126.136 378.166 125.95C376.612 125.758 376.182 125.513 376.149 125.215C376.119 124.917 376.562 124.621 378.069 124.243C379.57 123.872 382.159 123.389 386.479 122.848C388.64 122.58 391.039 122.396 393.428 122.329C395.818 122.259 398.2 122.309 400.296 122.441C404.497 122.694 407.627 123.285 407.627 123.285C407.627 123.285 406.872 123.525 405.602 123.863C404.325 124.202 402.523 124.632 400.449 125.016C396.3 125.81 391.055 126.324 386.701 126.305Z" fill="#F9971E"/>
<path d="M395.874 167.89C399.195 171.636 401.542 173.592 403.333 174.36C405.122 175.134 406.284 174.692 407.17 173.82C408.048 172.94 408.424 171.724 407.643 169.968C406.867 168.206 404.853 165.872 401.058 162.617C399.16 160.984 396.922 159.357 394.677 157.777C392.425 156.216 390.175 154.657 388.172 153.268C386.184 151.89 384.473 150.675 383.264 149.801C382.055 148.919 381.327 148.388 381.327 148.388C381.327 148.388 383.496 151.215 386.323 155.161C387.74 157.138 389.331 159.359 390.924 161.581C392.543 163.803 394.211 166.019 395.874 167.89Z" fill="#F9971E"/>
<path d="M367.528 181.344C368.306 186.292 369.23 189.208 370.327 190.826C371.412 192.418 372.635 192.698 373.851 192.442C375.059 192.151 376.036 191.356 376.323 189.452C376.613 187.532 376.177 184.491 374.735 179.699C374.016 177.3 373.008 174.719 371.968 172.176C370.913 169.648 369.858 167.123 368.92 164.874C367.987 162.638 367.2 160.689 366.652 159.299C366.11 157.91 365.784 157.074 365.784 157.074C365.784 157.074 366.087 160.62 366.342 165.465C366.471 167.897 366.616 170.629 366.761 173.363C366.926 176.106 367.136 178.871 367.528 181.344Z" fill="#F9971E"/>
<path d="M336.463 177.318C334.448 181.903 333.654 184.85 333.708 186.793C333.732 187.762 333.96 188.478 334.327 189.008C334.7 189.52 335.211 189.846 335.794 190.057C336.378 190.267 336.978 190.347 337.592 190.188C338.211 190.014 338.842 189.609 339.478 188.879C340.757 187.418 342.028 184.644 343.408 179.829C344.1 177.423 344.65 174.702 345.152 171.993C345.628 169.3 346.104 166.609 346.528 164.214C346.944 161.846 347.34 159.759 347.631 158.286C347.926 156.82 348.104 155.937 348.104 155.937C348.104 155.937 347.677 156.729 346.968 158.046C346.253 159.362 345.223 161.226 344.034 163.313C342.831 165.427 341.48 167.801 340.127 170.177C338.784 172.581 337.467 175.024 336.463 177.318Z" fill="#F9971E"/>
<path d="M300.992 157.082C296.816 159.842 294.549 161.891 293.534 163.556C292.519 165.214 292.785 166.431 293.52 167.432C294.27 168.421 295.411 168.97 297.259 168.445C299.111 167.925 301.709 166.259 305.467 162.965C307.351 161.317 309.281 159.331 311.162 157.332C313.025 155.323 314.887 153.316 316.545 151.529C318.191 149.755 319.636 148.232 320.672 147.157C321.714 146.085 322.341 145.44 322.341 145.44C322.341 145.44 319.238 147.184 314.935 149.424C312.778 150.548 310.356 151.81 307.931 153.073C305.505 154.362 303.078 155.7 300.992 157.082Z" fill="#F9971E"/>
<path d="M303.151 127.096C298.151 127.158 295.122 127.655 293.38 128.51C291.652 129.357 291.191 130.531 291.274 131.774C291.395 133.014 292.033 134.098 293.875 134.656C295.742 135.216 298.802 135.22 303.749 134.475C306.223 134.105 308.92 133.474 311.583 132.807C314.232 132.123 316.878 131.439 319.235 130.831C323.926 129.618 327.395 128.842 327.395 128.842C327.395 128.842 326.501 128.782 325.017 128.683C323.527 128.579 321.434 128.413 319.023 128.196C316.598 127.975 313.875 127.727 311.149 127.48C308.415 127.25 305.652 127.062 303.151 127.096Z" fill="#F9971E"/>
<path d="M334.955 75.9523C332.817 71.4241 331.111 68.8865 329.607 67.6447C328.114 66.4088 326.871 66.4953 325.778 67.082C324.697 67.6889 323.99 68.7365 324.249 70.6423C324.504 72.5563 325.78 75.3613 328.506 79.5541C329.868 81.6546 331.559 83.8485 333.269 85.9964C334.991 88.1271 336.712 90.2556 338.244 92.1511C339.766 94.0341 341.068 95.6817 341.985 96.8606C342.897 98.0439 343.446 98.756 343.446 98.756C343.446 98.756 342.161 95.4338 340.555 90.854C339.749 88.5572 338.844 85.9779 337.937 83.3962C337.006 80.8091 336.027 78.2153 334.955 75.9523Z" fill="#F9971E"/>
<path d="M365.997 71.0195C366.651 66.06 366.595 62.9746 365.998 61.1458C365.408 59.3151 364.318 58.667 363.076 58.5916C361.833 58.5339 360.671 58.9932 359.855 60.753C359.032 62.5241 358.589 65.5505 358.617 70.5592C358.628 73.0637 358.866 75.8261 359.144 78.5612C359.44 81.2818 359.736 83.9998 360 86.4199C360.526 91.2452 360.796 94.7973 360.796 94.7973C360.796 94.7973 360.983 93.9166 361.295 92.4534C361.612 90.9947 362.076 88.9468 362.636 86.5918C363.202 84.2188 363.838 81.5538 364.474 78.8864C365.092 76.2102 365.672 73.5031 365.997 71.0195Z" fill="#F9971E"/>
<path d="M394.699 83.6521C397.929 79.8272 399.527 77.2225 400.029 75.3384C400.546 73.4466 399.933 72.3659 398.944 71.6115C397.953 70.8567 396.688 70.6686 395.064 71.6924C393.431 72.7159 391.421 75.0318 388.742 79.2645C387.398 81.3822 386.118 83.8206 384.868 86.2854C383.648 88.739 382.429 91.1903 381.344 93.3731C380.265 95.5387 379.311 97.4043 378.619 98.7286C377.917 100.055 377.495 100.853 377.495 100.853C377.495 100.853 379.98 98.2971 383.478 94.9297C385.23 93.244 387.197 91.3512 389.166 89.4562C391.133 87.5346 393.086 85.5666 394.699 83.6521Z" fill="#F9971E"/>
<path d="M412.035 109.832C416.816 108.356 419.568 107.025 421.009 105.709C422.438 104.406 422.533 103.159 422.108 101.992C421.655 100.836 420.724 99.9852 418.802 99.9714C416.869 99.9553 413.919 100.821 409.385 102.93C407.115 103.982 404.706 105.348 402.34 106.738C399.99 108.144 397.642 109.547 395.551 110.797C393.473 112.038 391.659 113.096 390.363 113.837C389.065 114.573 388.283 115.015 388.283 115.015C388.283 115.015 391.749 114.212 396.504 113.27C398.89 112.796 401.57 112.264 404.252 111.731C406.942 111.176 409.645 110.573 412.035 109.832Z" fill="#F9971E"/>
<path d="M412.493 141.222C417.312 142.571 420.334 142.942 422.241 142.617C424.136 142.295 424.954 141.32 425.178 140.098C425.414 138.879 425.147 137.671 423.498 136.608C421.868 135.542 418.942 134.672 413.986 133.983C411.508 133.636 408.741 133.476 405.995 133.36C403.267 133.266 400.54 133.172 398.113 133.089C393.26 132.922 389.702 132.688 389.702 132.688C389.702 132.688 393.086 133.903 397.56 135.685C399.823 136.582 402.365 137.589 404.909 138.596C407.478 139.59 410.083 140.55 412.493 141.222Z" fill="#F9971E"/>
<path d="M168.661 141.266C165.579 141.266 163.072 138.756 163.072 135.671C163.072 132.586 165.579 130.076 168.661 130.076C171.743 130.076 174.25 132.586 174.25 135.671C174.25 138.756 171.743 141.266 168.661 141.266ZM168.661 124.481C162.497 124.481 157.482 129.501 157.482 135.671C157.482 141.841 162.497 146.861 168.661 146.861C174.825 146.861 179.84 141.841 179.84 135.671C179.84 129.501 174.825 124.481 168.661 124.481Z" fill="#FFB800"/>
<path d="M158.992 283.217C157.75 281.347 156.146 279.741 154.278 278.498C156.146 277.256 157.75 275.649 158.992 273.779C160.233 275.649 161.837 277.256 163.705 278.498C161.837 279.741 160.233 281.347 158.992 283.217ZM172.965 275.701C166.801 275.701 161.786 270.681 161.786 264.51C161.786 262.965 160.535 261.713 158.992 261.713C157.448 261.713 156.197 262.965 156.197 264.51C156.197 270.681 151.182 275.701 145.018 275.701C143.475 275.701 142.224 276.953 142.224 278.498C142.224 280.043 143.475 281.296 145.018 281.296C151.182 281.296 156.197 286.316 156.197 292.486C156.197 294.031 157.448 295.283 158.992 295.283C160.535 295.283 161.786 294.031 161.786 292.486C161.786 286.316 166.801 281.296 172.965 281.296C174.508 281.296 175.759 280.043 175.759 278.498C175.759 276.953 174.508 275.701 172.965 275.701Z" fill="#F9971E"/>
<path d="M359.159 300.327C359.602 298.126 359.602 295.854 359.159 293.654C361.357 294.097 363.626 294.097 365.825 293.654C365.382 295.854 365.382 298.126 365.825 300.327C363.626 299.883 361.357 299.883 359.159 300.327ZM374.349 304.903C369.99 300.54 369.99 293.44 374.349 289.078C375.44 287.985 375.44 286.214 374.349 285.121C373.257 284.029 371.488 284.029 370.396 285.121C366.038 289.484 358.946 289.484 354.587 285.121C353.496 284.029 351.726 284.029 350.635 285.121C349.544 286.214 349.544 287.985 350.635 289.078C354.993 293.44 354.993 300.54 350.635 304.903C349.544 305.996 349.544 307.767 350.635 308.859C351.726 309.952 353.496 309.952 354.587 308.859C358.946 304.497 366.038 304.497 370.396 308.859C371.488 309.952 373.257 309.952 374.349 308.859C375.44 307.767 375.44 305.996 374.349 304.903Z" fill="#F9971E"/>
<path d="M468.526 271.763C468.969 269.562 468.969 267.29 468.526 265.09C470.724 265.533 472.994 265.533 475.192 265.09C474.749 267.29 474.749 269.562 475.192 271.763C472.994 271.319 470.724 271.319 468.526 271.763ZM483.716 276.339C479.357 271.976 479.357 264.876 483.716 260.514C484.807 259.421 484.807 257.65 483.716 256.557C482.624 255.465 480.855 255.465 479.763 256.557C475.405 260.92 468.313 260.92 463.954 256.557C462.863 255.465 461.094 255.465 460.002 256.557C458.911 257.65 458.911 259.421 460.002 260.514C464.361 264.876 464.361 271.976 460.002 276.339C458.911 277.432 458.911 279.203 460.002 280.295C461.094 281.388 462.863 281.388 463.954 280.295C468.313 275.932 475.405 275.933 479.763 280.295C480.855 281.388 482.624 281.388 483.716 280.295C484.807 279.203 484.807 277.432 483.716 276.339Z" fill="#F9971E"/>
<path d="M477.965 162.744C478.408 160.544 478.408 158.272 477.965 156.071C480.164 156.515 482.433 156.515 484.632 156.071C484.188 158.272 484.188 160.544 484.632 162.744C482.433 162.301 480.164 162.301 477.965 162.744ZM493.155 167.32C488.797 162.958 488.797 155.858 493.155 151.495C494.247 150.402 494.247 148.632 493.155 147.539C492.064 146.446 490.294 146.446 489.203 147.539C484.845 151.902 477.752 151.902 473.394 147.539C472.302 146.446 470.533 146.446 469.442 147.539C468.35 148.631 468.35 150.403 469.442 151.495C473.8 155.858 473.8 162.958 469.442 167.32C468.35 168.413 468.35 170.184 469.442 171.277C470.533 172.369 472.302 172.369 473.394 171.277C477.752 166.914 484.845 166.914 489.203 171.277C490.294 172.369 492.064 172.369 493.155 171.277C494.247 170.184 494.247 168.413 493.155 167.32Z" fill="#F9971E"/>
<path d="M441.477 224.941C438.395 224.941 435.887 222.431 435.887 219.346C435.887 216.261 438.395 213.751 441.477 213.751C444.558 213.751 447.066 216.261 447.066 219.346C447.066 222.431 444.558 224.941 441.477 224.941ZM441.477 208.156C435.313 208.156 430.298 213.176 430.298 219.346C430.298 225.516 435.313 230.536 441.477 230.536C447.64 230.536 452.655 225.516 452.655 219.346C452.655 213.176 447.64 208.156 441.477 208.156Z" fill="#FFB800"/>
<path d="M325.356 31.694C322.274 31.694 319.766 29.1839 319.766 26.0988C319.766 23.0139 322.274 20.5036 325.356 20.5036C328.437 20.5036 330.945 23.0139 330.945 26.0988C330.945 29.1839 328.437 31.694 325.356 31.694ZM325.356 14.9087C319.192 14.9087 314.177 19.929 314.177 26.0988C314.177 32.2688 319.192 37.2891 325.356 37.2891C331.519 37.2891 336.534 32.2688 336.534 26.0988C336.534 19.929 331.519 14.9087 325.356 14.9087Z" fill="#61C0C7"/>
<path d="M288.249 326.486C285.167 326.486 282.659 323.976 282.659 320.891C282.659 317.806 285.167 315.296 288.249 315.296C291.331 315.296 293.838 317.806 293.838 320.891C293.838 323.976 291.331 326.486 288.249 326.486ZM288.249 309.701C282.085 309.701 277.07 314.721 277.07 320.891C277.07 327.061 282.085 332.081 288.249 332.081C294.412 332.081 299.428 327.061 299.428 320.891C299.428 314.721 294.412 309.701 288.249 309.701Z" fill="#FFB800"/>
<path d="M409.966 331.818C406.884 331.818 404.376 329.308 404.376 326.223C404.376 323.138 406.884 320.628 409.966 320.628C413.048 320.628 415.555 323.138 415.555 326.223C415.555 329.308 413.048 331.818 409.966 331.818ZM409.966 315.033C403.802 315.033 398.787 320.053 398.787 326.223C398.787 332.393 403.802 337.413 409.966 337.413C416.129 337.413 421.144 332.393 421.144 326.223C421.144 320.053 416.129 315.033 409.966 315.033Z" fill="#61C0C7"/>
<path d="M208.287 94.8111C207.046 92.9413 205.441 91.335 203.574 90.0924C205.441 88.8501 207.046 87.2435 208.287 85.3737C209.528 87.2435 211.133 88.8501 213.001 90.0924C211.133 91.335 209.528 92.9413 208.287 94.8111ZM222.261 87.2948C216.097 87.2948 211.082 82.2748 211.082 76.1047C211.082 74.5595 209.831 73.3071 208.287 73.3071C206.744 73.3071 205.493 74.5595 205.493 76.1047C205.493 82.2748 200.478 87.2948 194.314 87.2948C192.77 87.2948 191.52 88.5472 191.52 90.0924C191.52 91.6376 192.77 92.89 194.314 92.89C200.478 92.89 205.493 97.9103 205.493 104.08C205.493 105.626 206.744 106.878 208.287 106.878C209.831 106.878 211.082 105.626 211.082 104.08C211.082 97.9103 216.097 92.89 222.261 92.89C223.804 92.89 225.055 91.6376 225.055 90.0924C225.055 88.5472 223.804 87.2948 222.261 87.2948Z" fill="#F9971E"/>
<path d="M394.688 44.4972C393.447 42.6273 391.842 41.021 389.974 39.7784C391.842 38.5358 393.447 36.9295 394.688 35.0597C395.929 36.9295 397.534 38.5358 399.402 39.7784C397.534 41.021 395.929 42.6273 394.688 44.4972ZM408.661 36.9808C402.498 36.9808 397.482 31.9605 397.482 25.7908C397.482 24.2455 396.231 22.9932 394.688 22.9932C393.144 22.9932 391.893 24.2455 391.893 25.7908C391.893 31.9605 386.878 36.9808 380.715 36.9808C379.171 36.9808 377.92 38.2332 377.92 39.7784C377.92 41.3236 379.171 42.576 380.715 42.576C386.878 42.576 391.893 47.5963 391.893 53.7661C391.893 55.3113 393.144 56.5637 394.688 56.5637C396.231 56.5637 397.482 55.3113 397.482 53.7661C397.482 47.5963 402.498 42.576 408.661 42.576C410.205 42.576 411.456 41.3236 411.456 39.7784C411.456 38.2332 410.205 36.9808 408.661 36.9808Z" fill="#F9971E"/>
<path d="M377.096 114.498C383.301 112.845 389.677 116.509 391.372 122.701L422.244 235.475C422.965 238.107 422.741 240.908 421.612 243.391L411.042 266.637C409.594 269.821 406.796 272.189 403.416 273.09L243.785 315.643C237.529 317.311 231.109 313.574 229.471 307.312L199.939 194.357C199.237 191.67 199.515 188.82 200.724 186.32L212.187 162.615C213.668 159.553 216.411 157.288 219.699 156.412L377.096 114.498Z" fill="#61C0C7"/>
<path fill-rule="evenodd" clip-rule="evenodd" d="M402.423 119.678L433.295 232.453C434.722 237.665 434.278 243.212 432.042 248.131L421.472 271.377C418.605 277.682 413.063 282.371 406.368 284.156L246.738 326.71C234.346 330.013 221.631 322.612 218.388 310.208L188.856 197.253C187.465 191.931 188.016 186.288 190.411 181.336L201.874 157.631C204.807 151.566 210.239 147.08 216.751 145.346L374.148 103.432C386.438 100.159 399.066 107.415 402.423 119.678ZM391.373 122.701C389.678 116.51 383.302 112.846 377.097 114.498L219.7 156.413C216.412 157.288 213.669 159.553 212.188 162.615L200.725 186.32C199.516 188.821 199.238 191.67 199.94 194.357L229.472 307.312C231.109 313.575 237.53 317.312 243.786 315.644L403.417 273.09C406.797 272.189 409.595 269.821 411.042 266.638L421.612 243.392C422.742 240.908 422.966 238.107 422.245 235.476L391.373 122.701Z" fill="#F2FCFC"/>
<g filter="url(#filter0_i_611_781)">
<path fill-rule="evenodd" clip-rule="evenodd" d="M242.448 156.018L224.646 89.6038C224.646 89.6038 211.083 39.0025 261.701 25.444C312.319 11.8854 325.882 62.4867 325.882 62.4867L343.684 128.901L242.448 156.018ZM267.757 149.238L249.956 82.824C249.956 82.824 243.174 57.5235 268.483 50.7441C293.792 43.9647 300.574 69.2655 300.574 69.2655L318.375 135.68L267.757 149.238Z" fill="url(#paint0_linear_611_781)"/>
</g>
<path fill-rule="evenodd" clip-rule="evenodd" d="M213.581 92.5681L224.572 89.6239C213.581 92.5681 213.579 92.5625 213.578 92.5567L213.574 92.5441L213.567 92.5153L213.548 92.4435C213.534 92.3894 213.517 92.3227 213.497 92.2438C213.457 92.086 213.407 91.8793 213.348 91.6264C213.23 91.1208 213.079 90.4285 212.914 89.5717C212.584 87.8619 212.195 85.4745 211.915 82.5909C211.361 76.8783 211.206 68.9241 212.969 60.3126C214.741 51.6519 218.508 42.0965 225.952 33.629C233.453 25.0969 244.145 18.2903 258.736 14.3819C273.327 10.4736 285.992 11.0236 296.755 14.6635C307.437 18.2759 315.478 24.6684 321.345 31.2827C327.179 37.8594 331.023 44.8257 333.4 50.0499C334.6 52.687 335.458 54.9487 336.027 56.5943C336.313 57.419 336.528 58.0943 336.679 58.5909C336.754 58.8394 336.814 59.0436 336.859 59.2C336.881 59.2782 336.899 59.3445 336.914 59.3984L336.934 59.47L336.942 59.4988L336.945 59.5114C336.947 59.5172 336.948 59.5228 325.882 62.4869C325.882 62.4869 312.319 11.8856 261.701 25.4441C211.083 39.0027 224.646 89.604 224.646 89.604L242.448 156.018L343.684 128.901L325.882 62.4869L336.948 59.5228L357.715 136.999L234.347 170.045L213.581 92.5681ZM315.41 124.618L300.574 69.2657C300.574 69.2657 293.793 43.9649 268.483 50.7443C243.174 57.5237 249.956 82.8242 249.956 82.8242L264.792 138.176L267.757 149.239L318.375 135.68L315.41 124.618ZM304.344 127.582L289.531 72.3151C289.531 72.3148 289.531 72.3155 289.531 72.3151C289.514 72.2608 289.473 72.1295 289.406 71.9363C289.271 71.5462 289.038 70.9225 288.691 70.1606C287.975 68.5867 286.903 66.7009 285.448 65.061C284.027 63.4586 282.406 62.2702 280.504 61.6267C278.683 61.0108 275.839 60.6303 271.448 61.8065C267.057 62.9827 264.785 64.7333 263.516 66.177C262.19 67.6853 261.382 69.5243 260.952 71.6224C260.513 73.7697 260.527 75.9388 260.694 77.6598C260.775 78.4929 260.885 79.1499 260.963 79.5553C261.001 79.756 261.031 79.889 261.044 79.9444C261.044 79.944 261.044 79.9447 261.044 79.9444L275.858 135.212L304.344 127.582ZM289.537 72.3352C289.539 72.3443 289.54 72.3451 289.537 72.3352V72.3352Z" fill="white"/>
<g filter="url(#filter1_i_611_781)">
<path d="M377.934 114.292C377.728 114.336 377.521 114.384 377.315 114.439L219.599 156.439C216.375 157.297 213.686 159.518 212.234 162.521L200.689 186.395C199.503 188.846 199.23 191.64 199.919 194.275L229.53 307.532C231.136 313.673 237.431 317.337 243.566 315.702L403.521 273.061C406.835 272.178 409.579 269.856 410.998 266.735L420.75 245.287C419.234 247.342 417.036 248.916 414.377 249.628L256.384 291.949C250.151 293.618 243.745 289.921 242.075 283.69L211.836 170.875C210.166 164.644 213.865 158.24 220.098 156.571L377.934 114.292Z" fill="#61C0C7"/>
</g>
<g filter="url(#filter2_i_611_781)">
<path d="M378.217 113.982C384.328 112.345 390.61 115.971 392.247 122.081L422.604 235.334C424.241 241.443 420.614 247.723 414.503 249.36L256.071 291.798C249.96 293.435 243.678 289.809 242.04 283.7L211.684 170.446C210.047 164.337 213.673 158.057 219.785 156.42L378.217 113.982Z" fill="url(#paint1_linear_611_781)"/>
</g>
<path d="M337.549 157.838L312.696 210.035L288.725 198.629L280.026 216.898L303.997 228.304L322.272 237L355.824 166.533L337.549 157.838Z" fill="white"/>
</g>
<defs>
<filter id="filter0_i_611_781" x="222.995" y="23.1357" width="124.593" height="132.882" filterUnits="userSpaceOnUse" color-interpolation-filters="sRGB">
<feFlood flood-opacity="0" result="BackgroundImageFix"/>
<feBlend mode="normal" in="SourceGraphic" in2="BackgroundImageFix" result="shape"/>
<feColorMatrix in="SourceAlpha" type="matrix" values="0 0 0 0 0 0 0 0 0 0 0 0 0 0 0 0 0 0 127 0" result="hardAlpha"/>
<feOffset dx="7.80894"/>
<feGaussianBlur stdDeviation="1.95224"/>
<feComposite in2="hardAlpha" operator="arithmetic" k2="-1" k3="1"/>
<feColorMatrix type="matrix" values="0 0 0 0 0.411765 0 0 0 0 0.490196 0 0 0 0 0.584314 0 0 0 0.1 0"/>
<feBlend mode="normal" in2="shape" result="effect1_innerShadow_611_781"/>
</filter>
<filter id="filter1_i_611_781" x="199.547" y="107.394" width="228.101" height="208.697" filterUnits="userSpaceOnUse" color-interpolation-filters="sRGB">
<feFlood flood-opacity="0" result="BackgroundImageFix"/>
<feBlend mode="normal" in="SourceGraphic" in2="BackgroundImageFix" result="shape"/>
<feColorMatrix in="SourceAlpha" type="matrix" values="0 0 0 0 0 0 0 0 0 0 0 0 0 0 0 0 0 0 127 0" result="hardAlpha"/>
<feOffset dx="7.80894" dy="-11.7134"/>
<feGaussianBlur stdDeviation="3.44911"/>
<feComposite in2="hardAlpha" operator="arithmetic" k2="-1" k3="1"/>
<feColorMatrix type="matrix" values="0 0 0 0 0 0 0 0 0 0.360784 0 0 0 0 0.305882 0 0 0 0.32 0"/>
<feBlend mode="normal" in2="shape" result="effect1_innerShadow_611_781"/>
</filter>
<filter id="filter2_i_611_781" x="211.291" y="113.589" width="211.706" height="178.602" filterUnits="userSpaceOnUse" color-interpolation-filters="sRGB">
<feFlood flood-opacity="0" result="BackgroundImageFix"/>
<feBlend mode="normal" in="SourceGraphic" in2="BackgroundImageFix" result="shape"/>
<feColorMatrix in="SourceAlpha" type="matrix" values="0 0 0 0 0 0 0 0 0 0 0 0 0 0 0 0 0 0 127 0" result="hardAlpha"/>
<feOffset dx="4.59882" dy="-6.89823"/>
<feComposite in2="hardAlpha" operator="arithmetic" k2="-1" k3="1"/>
<feColorMatrix type="matrix" values="0 0 0 0 0.152941 0 0 0 0 0.74902 0 0 0 0 0.603922 0 0 0 0.3 0"/>
<feBlend mode="normal" in2="shape" result="effect1_innerShadow_611_781"/>
</filter>
<linearGradient id="paint0_linear_611_781" x1="191.86" y1="23.1357" x2="355.869" y2="302.544" gradientUnits="userSpaceOnUse">
<stop stop-color="#BAC7D5"/>
<stop offset="0.583333" stop-color="#697D95"/>
</linearGradient>
<linearGradient id="paint1_linear_611_781" x1="362.911" y1="176.074" x2="201.373" y2="453.331" gradientUnits="userSpaceOnUse">
<stop stop-color="#02B89E"/>
<stop offset="1" stop-color="#007F6D"/>
</linearGradient>
<clipPath id="clip0_611_781">
<rect width="582" height="344" fill="white" transform="matrix(-1 0 0 1 582 0)"/>
</clipPath>
</defs>
</svg>
