<svg width="36" height="36" viewBox="0 0 36 36" fill="none" xmlns="http://www.w3.org/2000/svg">
<g id="carbon:pedestrian-family">
<path id="Vector" d="M22.5 33.75H19.125C18.5284 33.7494 17.9565 33.5122 17.5347 33.0903C17.1128 32.6685 16.8756 32.0966 16.875 31.5V25.875H19.125V31.5H22.5V25.875H24.75V21.375C24.7497 21.0767 24.6311 20.7907 24.4202 20.5798C24.2093 20.3689 23.9233 20.2503 23.625 20.25H13.815L11.565 13.5H4.5C4.20172 13.5003 3.91575 13.6189 3.70483 13.8298C3.49392 14.0407 3.3753 14.3267 3.375 14.625V21.375H5.625V31.5H10.125V23.625H12.375V31.5C12.3744 32.0966 12.1372 32.6685 11.7153 33.0903C11.2935 33.5122 10.7216 33.7494 10.125 33.75H5.625C5.02845 33.7494 4.4565 33.5122 4.03467 33.0903C3.61284 32.6685 3.3756 32.0966 3.375 31.5V23.625C2.77845 23.6244 2.2065 23.3872 1.78467 22.9653C1.36284 22.5435 1.1256 21.9716 1.125 21.375V14.625C1.12589 13.7302 1.48176 12.8722 2.1145 12.2395C2.74724 11.6068 3.60517 11.2509 4.5 11.25H11.565C12.0372 11.2497 12.4974 11.3981 12.8805 11.6742C13.2636 11.9502 13.55 12.3399 13.6991 12.7879L15.435 18H23.625C24.5198 18.0009 25.3778 18.3568 26.0105 18.9895C26.6432 19.6222 26.9991 20.4802 27 21.375V25.875C26.9994 26.4716 26.7622 27.0435 26.3403 27.4653C25.9185 27.8872 25.3466 28.1244 24.75 28.125V31.5C24.7494 32.0966 24.5122 32.6685 24.0903 33.0903C23.6685 33.5122 23.0966 33.7494 22.5 33.75ZM31.5 33.75H29.25V21.375H32.625V14.625C32.6247 14.3267 32.5061 14.0407 32.2952 13.8298C32.0843 13.6189 31.7983 13.5003 31.5 13.5H27V11.25H31.5C32.3948 11.2509 33.2528 11.6068 33.8855 12.2395C34.5182 12.8722 34.8741 13.7302 34.875 14.625V21.375C34.8744 21.9716 34.6372 22.5435 34.2153 22.9653C33.7935 23.3872 33.2216 23.6244 32.625 23.625H31.5V33.75ZM7.875 10.125C6.98498 10.125 6.11495 9.86108 5.37493 9.36661C4.63491 8.87215 4.05814 8.16934 3.71754 7.34708C3.37695 6.52481 3.28783 5.62001 3.46147 4.7471C3.6351 3.87418 4.06368 3.07236 4.69302 2.44302C5.32236 1.81369 6.12418 1.3851 6.99709 1.21147C7.87001 1.03783 8.77481 1.12695 9.59708 1.46754C10.4193 1.80814 11.1221 2.38491 11.6166 3.12494C12.1111 3.86496 12.375 4.73499 12.375 5.625C12.3735 6.81802 11.8989 7.96175 11.0553 8.80534C10.2117 9.64893 9.06802 10.1235 7.875 10.125ZM7.875 3.375C7.42999 3.375 6.99498 3.50696 6.62497 3.7542C6.25496 4.00143 5.96657 4.35283 5.79627 4.76396C5.62597 5.1751 5.58142 5.6275 5.66823 6.06395C5.75505 6.50041 5.96934 6.90132 6.28401 7.21599C6.59868 7.53066 6.99959 7.74495 7.43605 7.83177C7.8725 7.91859 8.3249 7.87403 8.73604 7.70373C9.14717 7.53343 9.49857 7.24504 9.74581 6.87503C9.99304 6.50502 10.125 6.07001 10.125 5.625C10.1244 5.02845 9.88716 4.4565 9.46533 4.03467C9.0435 3.61284 8.47155 3.3756 7.875 3.375ZM28.125 10.125C27.235 10.125 26.365 9.86108 25.6249 9.36661C24.8849 8.87215 24.3081 8.16934 23.9675 7.34708C23.6269 6.52481 23.5378 5.62001 23.7115 4.7471C23.8851 3.87418 24.3137 3.07236 24.943 2.44302C25.5724 1.81369 26.3742 1.3851 27.2471 1.21147C28.12 1.03783 29.0248 1.12695 29.8471 1.46754C30.6693 1.80814 31.3721 2.38491 31.8666 3.12494C32.3611 3.86496 32.625 4.73499 32.625 5.625C32.6235 6.81802 32.1489 7.96175 31.3053 8.80534C30.4617 9.64893 29.318 10.1235 28.125 10.125ZM28.125 3.375C27.68 3.375 27.245 3.50696 26.875 3.7542C26.505 4.00143 26.2166 4.35283 26.0463 4.76396C25.876 5.1751 25.8314 5.6275 25.9182 6.06395C26.005 6.50041 26.2193 6.90132 26.534 7.21599C26.8487 7.53066 27.2496 7.74495 27.686 7.83177C28.1225 7.91859 28.5749 7.87403 28.986 7.70373C29.3972 7.53343 29.7486 7.24504 29.9958 6.87503C30.243 6.50502 30.375 6.07001 30.375 5.625C30.3744 5.02845 30.1372 4.4565 29.7153 4.03467C29.2935 3.61284 28.7216 3.3756 28.125 3.375Z" fill="#61C0C7"/>
<path id="Vector_2" d="M20.8125 16.875C20.0337 16.875 19.2725 16.6441 18.6249 16.2114C17.9774 15.7788 17.4727 15.1638 17.1747 14.4443C16.8767 13.7248 16.7987 12.9331 16.9507 12.1693C17.1026 11.4055 17.4776 10.7039 18.0283 10.1533C18.5789 9.6026 19.2805 9.22759 20.0443 9.07566C20.8081 8.92373 21.5998 9.00171 22.3193 9.29973C23.0388 9.59775 23.6538 10.1024 24.0864 10.7499C24.5191 11.3975 24.75 12.1587 24.75 12.9375C24.7488 13.9814 24.3336 14.9823 23.5954 15.7204C22.8573 16.4586 21.8564 16.8738 20.8125 16.875ZM20.8125 11.25C20.4787 11.25 20.1525 11.349 19.875 11.5344C19.5975 11.7198 19.3812 11.9834 19.2535 12.2917C19.1257 12.6001 19.0923 12.9394 19.1574 13.2667C19.2225 13.5941 19.3833 13.8947 19.6193 14.1307C19.8553 14.3667 20.1559 14.5275 20.4833 14.5926C20.8106 14.6577 21.1499 14.6243 21.4583 14.4965C21.7666 14.3688 22.0302 14.1525 22.2156 13.875C22.401 13.5975 22.5 13.2713 22.5 12.9375C22.4994 12.4901 22.3214 12.0613 22.0051 11.7449C21.6887 11.4286 21.2599 11.2506 20.8125 11.25Z" fill="#61C0C7"/>
</g>
</svg>
