<svg width="36" height="36" viewBox="0 0 36 36" fill="none" xmlns="http://www.w3.org/2000/svg">
<g id="fluent-mdl2:car">
<path id="Vector" d="M6.75 20.25C7.06641 20.25 7.35938 20.3086 7.62891 20.4258C7.89844 20.543 8.13281 20.7012 8.33203 20.9004C8.53125 21.0996 8.69531 21.3398 8.82422 21.6211C8.95312 21.9023 9.01172 22.1953 9 22.5C9 22.8164 8.94141 23.1094 8.82422 23.3789C8.70703 23.6484 8.54883 23.8828 8.34961 24.082C8.15039 24.2812 7.91016 24.4453 7.62891 24.5742C7.34766 24.7031 7.05469 24.7617 6.75 24.75C6.43359 24.75 6.14062 24.6914 5.87109 24.5742C5.60156 24.457 5.36719 24.2988 5.16797 24.0996C4.96875 23.9004 4.80469 23.6602 4.67578 23.3789C4.54688 23.0977 4.48828 22.8047 4.5 22.5C4.5 22.1836 4.55859 21.8906 4.67578 21.6211C4.79297 21.3516 4.95117 21.1172 5.15039 20.918C5.34961 20.7188 5.58984 20.5547 5.87109 20.4258C6.15234 20.2969 6.44531 20.2383 6.75 20.25ZM29.25 20.25C29.5664 20.25 29.8594 20.3086 30.1289 20.4258C30.3984 20.543 30.6328 20.7012 30.832 20.9004C31.0312 21.0996 31.1953 21.3398 31.3242 21.6211C31.4531 21.9023 31.5117 22.1953 31.5 22.5C31.5 22.8164 31.4414 23.1094 31.3242 23.3789C31.207 23.6484 31.0488 23.8828 30.8496 24.082C30.6504 24.2812 30.4102 24.4453 30.1289 24.5742C29.8477 24.7031 29.5547 24.7617 29.25 24.75C28.9336 24.75 28.6406 24.6914 28.3711 24.5742C28.1016 24.457 27.8672 24.2988 27.668 24.0996C27.4688 23.9004 27.3047 23.6602 27.1758 23.3789C27.0469 23.0977 26.9883 22.8047 27 22.5C27 22.1836 27.0586 21.8906 27.1758 21.6211C27.293 21.3516 27.4512 21.1172 27.6504 20.918C27.8496 20.7188 28.0898 20.5547 28.3711 20.4258C28.6523 20.2969 28.9453 20.2383 29.25 20.25ZM35.3496 15.75L34.1895 16.8926C34.2129 16.9512 34.2715 17.127 34.3652 17.4199C34.459 17.7129 34.5703 18.0586 34.6992 18.457C34.8281 18.8555 34.9746 19.2832 35.1387 19.7402C35.3027 20.1973 35.4434 20.6133 35.5605 20.9883C35.6777 21.3633 35.7832 21.6797 35.877 21.9375C35.9707 22.1953 36.0117 22.3242 36 22.3242V33.75C36 34.0664 35.9414 34.3594 35.8242 34.6289C35.707 34.8984 35.5488 35.1328 35.3496 35.332C35.1504 35.5312 34.9102 35.6953 34.6289 35.8242C34.3477 35.9531 34.0547 36.0117 33.75 36H31.5C31.1836 36 30.8906 35.9414 30.6211 35.8242C30.3516 35.707 30.1172 35.5488 29.918 35.3496C29.7188 35.1504 29.5547 34.9102 29.4258 34.6289C29.2969 34.3477 29.2383 34.0547 29.25 33.75H6.75C6.75 34.0664 6.69141 34.3594 6.57422 34.6289C6.45703 34.8984 6.29883 35.1328 6.09961 35.332C5.90039 35.5312 5.66016 35.6953 5.37891 35.8242C5.09766 35.9531 4.80469 36.0117 4.5 36H2.25C1.93359 36 1.64062 35.9414 1.37109 35.8242C1.10156 35.707 0.867188 35.5488 0.667969 35.3496C0.46875 35.1504 0.304688 34.9102 0.175781 34.6289C0.046875 34.3477 -0.0117188 34.0547 2.32831e-10 33.75V22.3242L0.123047 21.9551L0.439453 21.0059L0.861328 19.7402C1.01367 19.2832 1.1543 18.8555 1.2832 18.457C1.41211 18.0586 1.5293 17.7129 1.63477 17.4199C1.74023 17.127 1.79883 16.9512 1.81055 16.8926L0.650391 15.75H2.32831e-10V13.5H1.59961L2.60156 14.5195L3.90234 10.5996C4.08984 10.0254 4.35938 9.50391 4.71094 9.03516C5.0625 8.56641 5.47852 8.16211 5.95898 7.82227C6.43945 7.48242 6.94922 7.21875 7.48828 7.03125C8.02734 6.84375 8.61328 6.75 9.24609 6.75H26.7539C27.3633 6.75 27.9434 6.84375 28.4941 7.03125C29.0449 7.21875 29.5605 7.47656 30.041 7.80469C30.5215 8.13281 30.9316 8.53711 31.2715 9.01758C31.6113 9.49805 31.8867 10.0254 32.0977 10.5996L33.3984 14.5195L34.4004 13.5H36V15.75H35.3496ZM9.24609 9C8.50781 9 7.85156 9.21094 7.27734 9.63281C6.70312 10.0547 6.29297 10.6113 6.04688 11.3027L4.55273 15.75H31.4473L29.9531 11.3027C29.7188 10.6113 29.3145 10.0547 28.7402 9.63281C28.166 9.21094 27.5039 9 26.7539 9H9.24609ZM24.75 30.6387L22.9219 27H13.0781L11.25 30.6387V31.5H24.75V30.6387ZM33.75 31.5V22.6758L33.6445 22.3594C33.5742 22.1484 33.4863 21.873 33.3809 21.5332C33.2754 21.1934 33.1523 20.8359 33.0117 20.4609C32.8711 20.0859 32.748 19.7168 32.6426 19.3535C32.5371 18.9902 32.4375 18.6914 32.3438 18.457C32.25 18.2227 32.1973 18.0703 32.1855 18H3.81445C3.79102 18.0586 3.73828 18.2109 3.65625 18.457C3.57422 18.7031 3.47461 18.9961 3.35742 19.3359C3.24023 19.6758 3.11719 20.0449 2.98828 20.4434C2.85938 20.8418 2.74219 21.2051 2.63672 21.5332C2.53125 21.8613 2.4375 22.1309 2.35547 22.3418C2.27344 22.5527 2.23828 22.6641 2.25 22.6758V31.5H9V30.1113L11.6719 24.75H24.3281L27 30.1113V31.5H33.75Z" fill="#61C0C7"/>
</g>
</svg>
