<svg width="36" height="36" viewBox="0 0 36 36" fill="none" xmlns="http://www.w3.org/2000/svg">
<g id="Group">
<path id="Vector" d="M27 21.8569C26.9999 24.0135 26.4572 26.1355 25.422 28.0275C24.3868 29.9195 22.8923 31.5206 21.0761 32.6836C19.2598 33.8466 17.1802 34.534 15.0287 34.6826C12.8772 34.8312 10.7228 34.4362 8.76394 33.5339C6.80508 32.6317 5.10465 31.2512 3.81919 29.5195C2.53372 27.7878 1.70451 25.7605 1.40789 23.6243C1.11127 21.4882 1.35678 19.3117 2.1218 17.2953C2.88682 15.2789 4.14678 13.4873 5.78571 12.0854" stroke="#61C0C7" stroke-width="1.71429" stroke-linecap="round" stroke-linejoin="round"/>
<path id="Vector_2" d="M13.5771 17.0998C13.3054 17.6609 13.1647 18.2764 13.1657 18.8998C13.1623 19.4174 13.2617 19.9305 13.4582 20.4094C13.6547 20.8883 13.9444 21.3233 14.3104 21.6894C14.6764 22.0554 15.1115 22.345 15.5904 22.5416C16.0693 22.7381 16.5824 22.8375 17.1 22.8341C17.6251 22.8341 18.1287 23.0427 18.5001 23.414C18.8714 23.7853 19.08 24.2889 19.08 24.8141V33.7369M1.46571 23.8369H6.22286C6.75148 23.8232 7.27751 23.9155 7.76989 24.1083C8.26227 24.3012 8.71105 24.5907 9.08973 24.9598C9.46841 25.3289 9.76934 25.7701 9.97475 26.2574C10.1802 26.7446 10.2859 27.2681 10.2857 27.7969V34.0969M34.0971 4.80836L31.5257 3.93407C31.345 3.87268 31.1491 3.87212 30.968 3.93248C30.787 3.99284 30.6306 4.11081 30.5229 4.26836L28.6457 7.17407L18.36 2.03122C17.5471 1.55213 16.6383 1.25864 15.6987 1.17174C14.7591 1.08484 13.812 1.20669 12.925 1.52857C12.038 1.85044 11.2331 2.36438 10.5679 3.03362C9.90269 3.70286 9.39364 4.51086 9.07714 5.39979C8.98991 5.6304 8.95244 5.87685 8.96718 6.12296C8.98192 6.36907 9.04854 6.60929 9.16267 6.82784C9.27681 7.04638 9.43586 7.23833 9.62941 7.39106C9.82296 7.5438 10.0466 7.65388 10.2857 7.71407L16.9971 9.87407L17.6657 10.1055L18.9257 14.4255C18.9662 14.5759 19.044 14.7137 19.1518 14.8261C19.2597 14.9385 19.3942 15.0218 19.5429 15.0684L22.5771 16.0455C22.7321 16.096 22.8973 16.1058 23.0571 16.0741C23.2169 16.0424 23.3659 15.9701 23.4898 15.8643C23.6137 15.7585 23.7083 15.6226 23.7646 15.4698C23.8209 15.3169 23.8371 15.1521 23.8114 14.9912L23.1429 11.7769H23.58L30.1371 13.9112C30.5669 14.0593 31.0377 14.0317 31.4471 13.8342C31.8565 13.6367 32.1713 13.2855 32.3229 12.8569L34.6371 5.73407C34.6626 5.54173 34.6234 5.34637 34.5256 5.17878C34.4279 5.01118 34.2771 4.88087 34.0971 4.80836Z" stroke="#61C0C7" stroke-width="1.71429" stroke-linecap="round" stroke-linejoin="round"/>
</g>
</svg>
